<?xml version="1.0" encoding="utf-8"?>
<!-- Generator: Adobe Illustrator 22.1.0, SVG Export Plug-In . SVG Version: 6.00 Build 0)  -->
<svg version="1.1" id="Capa_1" xmlns="http://www.w3.org/2000/svg" xmlns:xlink="http://www.w3.org/1999/xlink" x="0px" y="0px"
	 viewBox="0 0 160 60" style="enable-background:new 0 0 160 60;" xml:space="preserve">
<style type="text/css">
	.st0{fill:#8A53E0;}
	.st1{fill:#FAD505;}
</style>
<g>
	<path class="st0" d="M2.2,13.4h7.1c0.4,0,0.8,0.3,0.8,0.8v16.7h17.3V14.1c0-0.4,0.3-0.8,0.8-0.8h7.1c0.4,0,0.8,0.3,0.8,0.8v41.6
		c0,0.4-0.3,0.8-0.8,0.8h-7.1c-0.4,0-0.8-0.3-0.8-0.8V39H10.1v16.7c0,0.4-0.3,0.8-0.8,0.8H2.2c-0.4,0-0.8-0.3-0.8-0.8V14.1
		C1.4,13.7,1.8,13.4,2.2,13.4z M100.3,56.4h-6.2c-0.4,0-0.8-0.4-0.8-0.8v-3h-0.1c-0.8,1.5-3.6,4.5-8.5,4.5c-3.3,0-6.9-0.9-9.8-4.2
		c-1.2-1.3-2.1-2.9-2.8-4.7c-0.6-1.8-1-3.8-1-6c0-2,0.3-3.9,0.9-5.8c0.6-1.8,1.4-3.5,2.5-4.9c1.1-1.4,2.4-2.6,3.9-3.4
		c1.6-0.8,3.3-1.3,5.3-1.3c5.2,0,8,2.9,8.7,3.8h0.1V14.1c0-0.4,0.3-0.8,0.8-0.8h7c0.4,0,0.8,0.3,0.8,0.8v41.5
		C101.1,56.1,100.7,56.4,100.3,56.4z M93.3,42.1c0-2.2-0.6-3.9-1.8-5.3c-1.2-1.3-2.9-2.4-5-2.4c-2.2,0-3.8,1-5,2.4
		c-1.2,1.3-1.8,3.1-1.8,5.3c0,2.2,0.6,3.9,1.8,5.3c1.2,1.3,2.7,2.3,4.9,2.3c2.2,0,4-0.9,5.2-2.3C92.7,46,93.3,44.2,93.3,42.1z
		 M124.1,52.8H124c-0.9,1.5-2.2,2.6-3.8,3.3s-3.2,1-5,1c-1.3,0-2.5-0.2-3.7-0.6c-1.2-0.4-2.2-0.9-3.1-1.7c-0.9-0.7-1.6-1.7-2.2-2.8
		c-0.5-1.1-0.8-2.4-0.8-3.8c0-1.7,0.3-3.1,0.9-4.2c0.6-1.1,1.4-2.1,2.4-2.8c1-0.7,2.1-1.3,3.4-1.7c1.3-0.4,2.6-0.7,4-0.9
		c1.4-0.2,2.8-0.3,4.1-0.4c1.4,0,2.7-0.1,3.8-0.1c0-1.6-0.5-2.8-1.6-3.8c-1.1-0.9-2.4-1.4-3.8-1.4c-1.4,0-2.7,0.3-3.8,0.9
		c-0.9,0.5-1.8,1.1-2.5,1.9c-0.3,0.3-0.8,0.3-1.1,0l-3.5-3.7c-0.3-0.3-0.3-0.8,0-1.1c1.5-1.3,3.1-2.3,5-2.9c2.1-0.8,4.3-1.2,6.6-1.2
		c2.5,0,4.5,0.3,6.2,1c1.6,0.7,2.9,1.6,3.9,2.9c1,1.3,1.6,2.8,2,4.6c0.4,1.8,0.6,4,0.6,6.4v13.9c0,0.4-0.3,0.8-0.8,0.8h-6.3
		c-0.4,0-0.8-0.3-0.8-0.8V52.8z M122,43.8c-0.6,0-1.4,0-2.4,0.1c-1,0.1-1.9,0.2-2.8,0.5c-0.9,0.3-1.6,0.7-2.3,1.2
		c-0.6,0.6-0.9,1.3-0.9,2.3c0,1.1,0.4,1.9,1.3,2.4c0.9,0.5,1.8,0.8,2.7,0.8c0.8,0,1.6-0.1,2.4-0.4c0.8-0.2,1.5-0.6,2.1-1
		c0.6-0.4,1.1-1,1.4-1.7c0.4-0.7,0.5-1.5,0.5-2.4v-1.9H122z M59,52.8h-0.1c-0.9,1.5-2.2,2.6-3.8,3.3s-3.2,1-5,1
		c-1.3,0-2.5-0.2-3.7-0.6c-1.2-0.4-2.2-0.9-3.1-1.7c-0.9-0.7-1.6-1.7-2.2-2.8c-0.5-1.1-0.8-2.4-0.8-3.8c0-1.7,0.3-3.1,0.9-4.2
		c0.6-1.1,1.4-2.1,2.4-2.8c1-0.7,2.1-1.3,3.4-1.7c1.3-0.4,2.6-0.7,4-0.9c1.4-0.2,2.8-0.3,4.1-0.4c1.4,0,2.7-0.1,3.8-0.1
		c0-1.6-0.5-2.8-1.6-3.8C56.3,33.5,55,33,53.5,33c-1.4,0-2.7,0.3-3.8,0.9c-0.9,0.5-1.8,1.1-2.5,1.9c-0.3,0.3-0.8,0.3-1.1,0l-3.5-3.7
		c-0.3-0.3-0.3-0.8,0-1.1c1.5-1.3,3.1-2.3,5-2.9c2.1-0.8,4.3-1.2,6.6-1.2c2.5,0,4.5,0.3,6.2,1c1.6,0.7,2.9,1.6,3.9,2.9
		c1,1.3,1.6,2.8,2,4.6c0.4,1.8,0.6,4,0.6,6.4v13.9c0,0.4-0.3,0.8-0.8,0.8h-6.3c-0.4,0-0.8-0.3-0.8-0.8V52.8z M56.9,43.8
		c-0.6,0-1.4,0-2.4,0.1c-1,0.1-1.9,0.2-2.8,0.5c-0.9,0.3-1.6,0.7-2.3,1.2c-0.6,0.6-0.9,1.3-0.9,2.3c0,1.1,0.4,1.9,1.3,2.4
		c0.9,0.5,1.8,0.8,2.7,0.8c0.8,0,1.6-0.1,2.4-0.4c0.8-0.2,1.5-0.6,2.1-1c0.6-0.4,1.1-1,1.4-1.7s0.5-1.5,0.5-2.4v-1.9H56.9z
		 M143.5,44.3c1.2,0.3,3,0.8,4.4,1.2c1.7,0.5,2.8,0.9,3.1,2.3c0.1,0.6-0.1,2.2-1.5,2.8c-0.7,0.3-3,0.6-5.6-0.8
		c-0.9-0.5-1.3-0.8-2.6-1.9c-0.3-0.3-0.8-0.3-1.1,0l-3.7,4.3c-0.3,0.3-0.3,0.8,0,1c1.1,1,2.3,1.7,3.6,2.3c1.6,0.8,8.5,3,13.9,0.1
		c4.2-2.2,4.6-6.6,4.6-8.3c0-1.7-0.7-3.5-1.6-4.6c-1-1.3-3.2-2.4-4.9-2.9c-0.9-0.3-6.1-1.8-6.9-2.1c-0.9-0.4-2.1-1.6-1.3-3.2
		c0.7-1.3,2.4-1.4,3.6-1.2c1.4,0.2,2.9,0.8,3.8,1.3c0.7,0.4,1.4,0.9,1.9,1.3c0.3,0.3,0.7,0.2,1,0l3.9-3.8c0.3-0.3,0.3-0.8,0-1.1
		c-2.6-2.1-5.2-3.2-6.9-3.6c-2.7-0.6-6.4-0.8-9.8,0.9c-3.6,1.8-5,5.1-5,8c0,1.7,0.6,3.5,1.3,4.5C138.2,41.9,139.7,43.3,143.5,44.3z"
		/>
	<path class="st1" d="M133.3,2.8c-0.2,2.6-1.2,5-2.9,6.9l-0.7,0.7c-1.8,1.7-4.2,2.8-6.9,2.9c0,0,0,0,0,0c0,0,0,0,0,0
		c2.6,0.2,5,1.2,6.9,2.9l0.7,0.7c1.7,1.8,2.8,4.2,2.9,6.9c0,0,0,0,0,0c0,0,0,0,0,0c0.2-2.6,1.2-5,2.9-6.9l0.7-0.7
		c1.8-1.7,4.2-2.8,6.9-2.9c0,0,0,0,0,0c0,0,0,0,0,0c-2.6-0.2-5-1.2-6.9-2.9l-0.7-0.7C134.6,7.8,133.6,5.4,133.3,2.8
		C133.4,2.8,133.4,2.8,133.3,2.8C133.3,2.8,133.3,2.8,133.3,2.8z"/>
</g>
</svg>
